<svg xmlns="http://www.w3.org/2000/svg" width="920" height="420" viewBox="0 0 920 420">
<rect width="100%" height="100%" fill="#ffffff"/>
<text x="460.0" y="30" text-anchor="middle" font-family="Arial, sans-serif" font-size="20" font-weight="700" fill="#111827">Peak APPL_DB Pending Routes at Batch Size 64</text>
<text x="18" y="194.0" transform="rotate(-90 18 194.0)" text-anchor="middle" font-family="Arial, sans-serif" font-size="13" fill="#374151">pending route keys</text>
<line x1="86" y1="334.0" x2="892" y2="334.0" stroke="#e5e7eb"/>
<text x="76" y="338.0" text-anchor="end" font-family="Arial, sans-serif" font-size="11" fill="#6b7280">0</text>
<line x1="86" y1="278.0" x2="892" y2="278.0" stroke="#e5e7eb"/>
<text x="76" y="282.0" text-anchor="end" font-family="Arial, sans-serif" font-size="11" fill="#6b7280">7617</text>
<line x1="86" y1="222.0" x2="892" y2="222.0" stroke="#e5e7eb"/>
<text x="76" y="226.0" text-anchor="end" font-family="Arial, sans-serif" font-size="11" fill="#6b7280">15233</text>
<line x1="86" y1="166.0" x2="892" y2="166.0" stroke="#e5e7eb"/>
<text x="76" y="170.0" text-anchor="end" font-family="Arial, sans-serif" font-size="11" fill="#6b7280">22850</text>
<line x1="86" y1="110.0" x2="892" y2="110.0" stroke="#e5e7eb"/>
<text x="76" y="114.0" text-anchor="end" font-family="Arial, sans-serif" font-size="11" fill="#6b7280">30467</text>
<line x1="86" y1="54.0" x2="892" y2="54.0" stroke="#e5e7eb"/>
<text x="76" y="58.0" text-anchor="end" font-family="Arial, sans-serif" font-size="11" fill="#6b7280">38083</text>
<line x1="86" y1="54" x2="86" y2="334" stroke="#9ca3af"/>
<line x1="86" y1="334" x2="892" y2="334" stroke="#9ca3af"/>
<rect x="139.6" y="321.2" width="54.0" height="12.8" fill="#059669" rx="3"/>
<text x="166.6" y="316.2" text-anchor="middle" font-family="Arial, sans-serif" font-size="10" fill="#374151">1741</text>
<text x="166.6" y="358" text-anchor="middle" font-family="Arial, sans-serif" font-size="12" fill="#111827">10k</text>
<rect x="300.8" y="271.4" width="54.0" height="62.6" fill="#059669" rx="3"/>
<text x="327.8" y="266.4" text-anchor="middle" font-family="Arial, sans-serif" font-size="10" fill="#374151">8520</text>
<text x="327.8" y="358" text-anchor="middle" font-family="Arial, sans-serif" font-size="12" fill="#111827">20k</text>
<rect x="462.0" y="209.9" width="54.0" height="124.1" fill="#059669" rx="3"/>
<text x="489.0" y="204.9" text-anchor="middle" font-family="Arial, sans-serif" font-size="10" fill="#374151">16884</text>
<text x="489.0" y="358" text-anchor="middle" font-family="Arial, sans-serif" font-size="12" fill="#111827">30k</text>
<rect x="623.2" y="148.4" width="54.0" height="185.6" fill="#059669" rx="3"/>
<text x="650.2" y="143.4" text-anchor="middle" font-family="Arial, sans-serif" font-size="10" fill="#374151">25247</text>
<text x="650.2" y="358" text-anchor="middle" font-family="Arial, sans-serif" font-size="12" fill="#111827">40k</text>
<rect x="784.4" y="90.5" width="54.0" height="243.5" fill="#059669" rx="3"/>
<text x="811.4" y="85.5" text-anchor="middle" font-family="Arial, sans-serif" font-size="10" fill="#374151">33116</text>
<text x="811.4" y="358" text-anchor="middle" font-family="Arial, sans-serif" font-size="12" fill="#111827">50k</text>
<rect x="86" y="380" width="14" height="14" fill="#059669" rx="2"/>
<text x="106" y="392" font-family="Arial, sans-serif" font-size="12" fill="#374151">max pending</text>
</svg>
